<mxfile host="app.diagrams.net" modified="2023-11-07T06:54:19.779Z" agent="Mozilla/5.0 (Macintosh; Intel Mac OS X 10_15_7) AppleWebKit/537.36 (KHTML, like Gecko) Chrome/118.0.0.0 Safari/537.36" version="22.0.8" etag="d3a_tVGA9gUE5LG-3Op1" type="github">
  <diagram name="第 1 页" id="UmlhvMR3IoB2PJI-r_Cw">
    <mxGraphModel>
      <root>
        <mxCell id="0" />
        <mxCell id="1" parent="0" />
      </root>
    </mxGraphModel>
  </diagram>
</mxfile>
